<svg width="47" height="10" viewBox="0 0 47 10" fill="none" xmlns="http://www.w3.org/2000/svg">
<path d="M1.47599 9.16193H-7.54744e-06L1.43999 3.98993C1.47199 3.89393 1.49199 3.79793 1.49999 3.70193C1.51599 3.60593 1.50799 3.52193 1.47599 3.44993C1.45199 3.37793 1.39199 3.34193 1.29599 3.34193C1.14399 3.34193 1.00399 3.42193 0.875993 3.58193C0.747992 3.73393 0.615992 3.99793 0.479992 4.37393L0.275992 4.93793H0.0479924L0.359992 4.03793C0.471992 3.71793 0.611992 3.46993 0.779992 3.29393C0.955992 3.10993 1.13999 2.98193 1.33199 2.90993C1.53199 2.83793 1.72799 2.80193 1.91999 2.80193C2.18399 2.80193 2.37999 2.85393 2.50799 2.95793C2.63599 3.06193 2.71999 3.19793 2.75999 3.36593C2.79999 3.53393 2.80399 3.71793 2.77199 3.91793C2.74799 4.10993 2.71199 4.29793 2.66399 4.48193L1.47599 9.16193ZM4.53599 4.19393C4.58399 4.04993 4.61599 3.91793 4.63199 3.79793C4.65599 3.66993 4.65199 3.56993 4.61999 3.49793C4.58799 3.41793 4.51199 3.37793 4.39199 3.37793C4.19999 3.37793 3.98799 3.49793 3.75599 3.73793C3.53199 3.97793 3.29999 4.31393 3.05999 4.74593C2.81999 5.17793 2.58399 5.68593 2.35199 6.26993C2.12799 6.84593 1.91599 7.47793 1.71599 8.16593L1.89599 6.97793C2.24799 5.95393 2.57999 5.13793 2.89199 4.52993C3.21199 3.91393 3.54799 3.47393 3.89999 3.20993C4.25199 2.93793 4.64799 2.80193 5.08799 2.80193C5.34399 2.80193 5.53599 2.85393 5.66399 2.95793C5.79999 3.06193 5.88799 3.20193 5.92799 3.37793C5.97599 3.54593 5.98399 3.73793 5.95199 3.95393C5.92799 4.16993 5.88399 4.38993 5.81999 4.61393L4.55999 9.16193H3.05999L4.53599 4.19393ZM7.66799 4.19393C7.73999 3.96993 7.77599 3.77793 7.77599 3.61793C7.77599 3.45793 7.71199 3.37793 7.58399 3.37793C7.39199 3.37793 7.18799 3.48593 6.97199 3.70193C6.75599 3.91793 6.52399 4.24193 6.27599 4.67393C6.03599 5.09793 5.79199 5.61793 5.54399 6.23393C5.29599 6.84993 5.04399 7.56193 4.78799 8.36993L4.90799 7.42193C5.19599 6.53393 5.47199 5.79393 5.73599 5.20193C5.99999 4.60993 6.26399 4.13793 6.52799 3.78593C6.79199 3.43393 7.06399 3.18193 7.34399 3.02993C7.63199 2.87793 7.93599 2.80193 8.25599 2.80193C8.59999 2.80193 8.84399 2.88993 8.98799 3.06593C9.13199 3.24193 9.19999 3.46593 9.19199 3.73793C9.18399 4.00993 9.12799 4.30193 9.02399 4.61393L7.84799 8.14193C7.76799 8.38193 7.74799 8.54993 7.78799 8.64593C7.82799 8.74193 7.90799 8.78993 8.02799 8.78993C8.14799 8.78993 8.27199 8.72193 8.39999 8.58593C8.53599 8.44993 8.67999 8.17393 8.83199 7.75793L9.02399 7.21793H9.25199L8.95199 8.09393C8.83999 8.42993 8.69599 8.68593 8.51999 8.86193C8.35199 9.03793 8.16799 9.15793 7.96799 9.22193C7.77599 9.29393 7.58799 9.32993 7.40399 9.32993C7.17199 9.32993 6.98399 9.29393 6.83999 9.22193C6.69599 9.15793 6.58399 9.06193 6.50399 8.93393C6.40799 8.77393 6.36799 8.57393 6.38399 8.33393C6.40799 8.09393 6.47199 7.81393 6.57599 7.49393L7.66799 4.19393ZM11.1941 6.52193C11.5701 6.37793 11.9141 6.22993 12.2261 6.07793C12.5461 5.91793 12.8141 5.74993 13.0301 5.57393C13.3261 5.30993 13.5661 5.00193 13.7501 4.64993C13.9341 4.28993 14.0261 3.89793 14.0261 3.47393C14.0261 3.28993 14.0101 3.16993 13.9781 3.11393C13.9461 3.05793 13.8981 3.02993 13.8341 3.02993C13.6501 3.02993 13.4501 3.11793 13.2341 3.29393C13.0181 3.46993 12.8061 3.71393 12.5981 4.02593C12.3901 4.32993 12.1981 4.67393 12.0221 5.05793C11.8541 5.44193 11.7181 5.84593 11.6141 6.26993C11.5101 6.69393 11.4581 7.11393 11.4581 7.52993C11.4581 7.95393 11.5381 8.25393 11.6981 8.42993C11.8661 8.59793 12.0861 8.68193 12.3581 8.68193C12.5901 8.68193 12.8661 8.60593 13.1861 8.45393C13.5061 8.30193 13.8221 8.02593 14.1341 7.62593L14.3261 7.72193C14.1661 7.98593 13.9541 8.24193 13.6901 8.48993C13.4261 8.73793 13.1221 8.94193 12.7781 9.10193C12.4421 9.25393 12.0701 9.32993 11.6621 9.32993C11.3261 9.32993 11.0221 9.26593 10.7501 9.13793C10.4781 9.00993 10.2661 8.82193 10.1141 8.57393C9.96212 8.31793 9.88612 8.00593 9.88612 7.63793C9.88612 7.24593 9.95412 6.82993 10.0901 6.38993C10.2261 5.94193 10.4181 5.50593 10.6661 5.08193C10.9221 4.65793 11.2221 4.27393 11.5661 3.92993C11.9181 3.58593 12.3061 3.31393 12.7301 3.11393C13.1541 2.90593 13.6101 2.80193 14.0981 2.80193C14.4181 2.80193 14.6861 2.87793 14.9021 3.02993C15.1181 3.17393 15.2261 3.39793 15.2261 3.70193C15.2261 4.01393 15.1381 4.30593 14.9621 4.57793C14.7861 4.84993 14.5461 5.09793 14.2421 5.32193C13.9461 5.54593 13.6181 5.74593 13.2581 5.92193C12.9061 6.09793 12.5501 6.24993 12.1901 6.37793C11.8301 6.50593 11.4941 6.60993 11.1821 6.68993L11.1941 6.52193ZM20.0028 2.96993L19.9668 3.20993H15.9468L16.0068 2.96993H20.0028ZM17.0868 8.14193C17.0228 8.36593 17.0308 8.52993 17.1108 8.63393C17.1988 8.73793 17.3148 8.78993 17.4588 8.78993C17.6268 8.78993 17.7948 8.70993 17.9628 8.54993C18.1388 8.38993 18.2988 8.10993 18.4428 7.70993L18.6228 7.21793H18.8508L18.6108 7.93793C18.4428 8.43393 18.2108 8.78993 17.9148 9.00593C17.6188 9.22193 17.2668 9.32993 16.8588 9.32993C16.4988 9.32993 16.2228 9.24993 16.0308 9.08993C15.8468 8.92993 15.7348 8.71393 15.6948 8.44193C15.6628 8.16193 15.6988 7.84593 15.8028 7.49393L17.6148 1.16993C17.9028 1.16193 18.1708 1.14593 18.4188 1.12193C18.6748 1.09793 18.9148 1.05793 19.1388 1.00193L17.0868 8.14193ZM20.8386 6.52193C21.2146 6.37793 21.5586 6.22993 21.8706 6.07793C22.1906 5.91793 22.4586 5.74993 22.6746 5.57393C22.9706 5.30993 23.2106 5.00193 23.3946 4.64993C23.5786 4.28993 23.6706 3.89793 23.6706 3.47393C23.6706 3.28993 23.6546 3.16993 23.6226 3.11393C23.5906 3.05793 23.5426 3.02993 23.4786 3.02993C23.2946 3.02993 23.0946 3.11793 22.8786 3.29393C22.6626 3.46993 22.4506 3.71393 22.2426 4.02593C22.0346 4.32993 21.8426 4.67393 21.6666 5.05793C21.4986 5.44193 21.3626 5.84593 21.2586 6.26993C21.1546 6.69393 21.1026 7.11393 21.1026 7.52993C21.1026 7.95393 21.1826 8.25393 21.3426 8.42993C21.5106 8.59793 21.7306 8.68193 22.0026 8.68193C22.2346 8.68193 22.5106 8.60593 22.8306 8.45393C23.1506 8.30193 23.4666 8.02593 23.7786 7.62593L23.9706 7.72193C23.8106 7.98593 23.5986 8.24193 23.3346 8.48993C23.0706 8.73793 22.7666 8.94193 22.4226 9.10193C22.0866 9.25393 21.7146 9.32993 21.3066 9.32993C20.9706 9.32993 20.6666 9.26593 20.3946 9.13793C20.1226 9.00993 19.9106 8.82193 19.7586 8.57393C19.6066 8.31793 19.5306 8.00593 19.5306 7.63793C19.5306 7.24593 19.5986 6.82993 19.7346 6.38993C19.8706 5.94193 20.0626 5.50593 20.3106 5.08193C20.5666 4.65793 20.8666 4.27393 21.2106 3.92993C21.5626 3.58593 21.9506 3.31393 22.3746 3.11393C22.7986 2.90593 23.2546 2.80193 23.7426 2.80193C24.0626 2.80193 24.3306 2.87793 24.5466 3.02993C24.7626 3.17393 24.8706 3.39793 24.8706 3.70193C24.8706 4.01393 24.7826 4.30593 24.6066 4.57793C24.4306 4.84993 24.1906 5.09793 23.8866 5.32193C23.5906 5.54593 23.2626 5.74593 22.9026 5.92193C22.5506 6.09793 22.1946 6.24993 21.8346 6.37793C21.4746 6.50593 21.1386 6.60993 20.8266 6.68993L20.8386 6.52193ZM28.7953 3.04193C28.5873 3.04193 28.3753 3.14993 28.1593 3.36593C27.9433 3.57393 27.7393 3.86193 27.5473 4.22993C27.3553 4.58993 27.1793 4.99393 27.0193 5.44193C26.8673 5.88993 26.7473 6.35393 26.6593 6.83393C26.5713 7.30593 26.5273 7.75793 26.5273 8.18993C26.5273 8.50993 26.5673 8.74193 26.6473 8.88593C26.7353 9.02193 26.8633 9.08993 27.0313 9.08993C27.2313 9.08993 27.4393 8.98593 27.6553 8.77793C27.8713 8.56993 28.0753 8.28993 28.2673 7.93793C28.4673 7.57793 28.6433 7.17793 28.7953 6.73793C28.9473 6.28993 29.0673 5.82593 29.1553 5.34593C29.2433 4.86593 29.2873 4.39793 29.2873 3.94193C29.2873 3.60593 29.2433 3.37393 29.1553 3.24593C29.0753 3.10993 28.9553 3.04193 28.7953 3.04193ZM25.1113 7.38593C25.1113 7.02593 25.1593 6.63793 25.2553 6.22193C25.3593 5.80593 25.5113 5.39793 25.7113 4.99793C25.9113 4.58993 26.1593 4.22193 26.4553 3.89393C26.7593 3.55793 27.1113 3.29393 27.5113 3.10193C27.9113 2.90193 28.3633 2.80193 28.8673 2.80193C29.4433 2.80193 29.8913 2.96593 30.2113 3.29393C30.5393 3.61393 30.7033 4.09793 30.7033 4.74593C30.7033 5.10593 30.6513 5.49393 30.5473 5.90993C30.4513 6.32593 30.3033 6.73793 30.1033 7.14593C29.9033 7.54593 29.6513 7.91393 29.3473 8.24993C29.0513 8.57793 28.7033 8.84193 28.3033 9.04193C27.9033 9.23393 27.4513 9.32993 26.9473 9.32993C26.3713 9.32993 25.9193 9.16593 25.5913 8.83793C25.2713 8.50993 25.1113 8.02593 25.1113 7.38593ZM32.8588 9.16193H31.3828L32.8228 3.98993C32.8948 3.74993 32.9188 3.58193 32.8948 3.48593C32.8708 3.38993 32.7988 3.34193 32.6788 3.34193C32.5268 3.34193 32.3868 3.41793 32.2588 3.56993C32.1308 3.72193 31.9988 3.98993 31.8628 4.37393L31.6588 4.93793H31.4308L31.7428 4.03793C31.8548 3.71793 31.9948 3.46993 32.1628 3.29393C32.3308 3.10993 32.5148 2.98193 32.7148 2.90993C32.9148 2.83793 33.1188 2.80193 33.3268 2.80193C33.5828 2.80193 33.7708 2.85393 33.8908 2.95793C34.0188 3.06193 34.0988 3.19793 34.1308 3.36593C34.1708 3.53393 34.1788 3.71793 34.1548 3.91793C34.1388 4.10993 34.1068 4.29793 34.0588 4.48193L32.8588 9.16193ZM35.9308 3.07793C35.7548 3.07793 35.5748 3.14193 35.3908 3.26993C35.2068 3.38993 35.0148 3.58593 34.8148 3.85793C34.6148 4.12993 34.4108 4.48993 34.2028 4.93793C34.0028 5.37793 33.7948 5.91793 33.5788 6.55793C33.3628 7.18993 33.1468 7.93793 32.9308 8.80193L33.2188 7.20593C33.4668 6.36593 33.6988 5.66593 33.9148 5.10593C34.1388 4.53793 34.3548 4.08593 34.5628 3.74993C34.7788 3.40593 35.0068 3.16193 35.2468 3.01793C35.4868 2.87393 35.7468 2.80193 36.0268 2.80193C36.3148 2.80193 36.5348 2.88593 36.6868 3.05393C36.8468 3.22193 36.9268 3.42993 36.9268 3.67793C36.9268 3.87793 36.8788 4.06593 36.7828 4.24193C36.6868 4.40993 36.5588 4.54593 36.3988 4.64993C36.2468 4.74593 36.0708 4.79393 35.8708 4.79393C35.6708 4.79393 35.5108 4.74193 35.3908 4.63793C35.2788 4.53393 35.2228 4.38193 35.2228 4.18193C35.2228 4.00593 35.2628 3.84593 35.3428 3.70193C35.4228 3.55793 35.5268 3.43793 35.6548 3.34193C35.7828 3.23793 35.9228 3.16593 36.0748 3.12593C36.0588 3.10993 36.0388 3.09793 36.0148 3.08993C35.9908 3.08193 35.9628 3.07793 35.9308 3.07793ZM36.8269 9.16193L37.9178 2.61648H39.4604L38.3695 9.16193H36.8269ZM38.915 1.67898C38.6678 1.67898 38.4633 1.59659 38.3013 1.43182C38.1394 1.26705 38.0684 1.0696 38.0883 0.839491C38.1082 0.609377 38.2118 0.411933 38.3993 0.247161C38.5897 0.0823884 38.807 2.14577e-06 39.0513 2.14577e-06C39.2985 2.14577e-06 39.5016 0.0823884 39.6607 0.247161C39.8226 0.411933 39.8937 0.609377 39.8738 0.839491C39.8567 1.0696 39.753 1.26705 39.5627 1.43182C39.3752 1.59659 39.1593 1.67898 38.915 1.67898ZM42.7939 9.28977C42.1405 9.28977 41.6035 9.14631 41.1831 8.85938C40.7626 8.57245 40.4686 8.17614 40.301 7.67046C40.1362 7.16193 40.1092 6.57671 40.22 5.91477C40.328 5.25 40.551 4.66335 40.889 4.15483C41.23 3.64347 41.6589 3.24574 42.176 2.96165C42.693 2.67472 43.2711 2.53125 43.9104 2.53125C44.4416 2.53125 44.8947 2.62926 45.2697 2.82529C45.6476 3.01847 45.9288 3.29262 46.1135 3.64773C46.301 4 46.3734 4.41193 46.3308 4.88352H44.8521C44.8464 4.56818 44.7484 4.3054 44.5581 4.09517C44.3677 3.8821 44.0893 3.77557 43.7229 3.77557C43.4047 3.77557 43.1121 3.8608 42.845 4.03125C42.578 4.19887 42.3521 4.44034 42.1675 4.75568C41.9828 5.07102 41.855 5.44887 41.7839 5.88921C41.7101 6.33523 41.7115 6.71875 41.7882 7.03977C41.8677 7.35796 42.0112 7.6037 42.2186 7.77699C42.4288 7.94745 42.6944 8.03267 43.0155 8.03267C43.2427 8.03267 43.4544 7.99006 43.6504 7.90483C43.8464 7.81676 44.0183 7.69034 44.166 7.52557C44.3166 7.3608 44.4345 7.16051 44.5197 6.92472H45.9942C45.8777 7.38779 45.6703 7.7983 45.372 8.15625C45.0765 8.51137 44.7101 8.78977 44.2726 8.99148C43.8351 9.19034 43.3422 9.28977 42.7939 9.28977Z" fill="white"/>
</svg>
