<svg xmlns="http://www.w3.org/2000/svg" viewBox="-279.8 -1003.3 1475.6 1475.6">
<g transform="skewX(-6)">
<g transform="scale(1,-1)">
<path d="M387 531Q429 531 455.0 520.5Q481 510 497 492Q513 473 520.0 442.5Q527 412 527 362V93Q527 51 540.0 36.0Q553 21 585 21V0Q567 1 530.5 2.5Q494 4 459 4Q423 4 388.0 2.5Q353 1 335 0V21Q362 21 372.5 36.0Q383 51 383 93V404Q383 429 379.0 447.5Q375 466 363.5 476.5Q352 487 329 487Q303 487 281.0 472.0Q259 457 245.5 430.5Q232 404 232 371V93Q232 51 243.0 36.0Q254 21 280 21V0Q264 1 230.5 2.5Q197 4 162 4Q124 4 84.0 2.5Q44 1 24 0V21Q59 21 73.5 36.0Q88 51 88 93V408Q88 453 74.5 474.5Q61 496 24 496V517Q56 514 86 514Q128 514 164.5 517.5Q201 521 232 528V438Q256 488 297.0 509.5Q338 531 387 531ZM688 531Q730 531 756.0 520.5Q782 510 798 492Q814 473 821.0 442.5Q828 412 828 362V93Q828 51 842.5 36.0Q857 21 892 21V0Q873 1 835.0 2.5Q797 4 760 4Q724 4 689.0 2.5Q654 1 636 0V21Q663 21 673.5 36.0Q684 51 684 93V404Q684 429 679.5 447.5Q675 466 662.5 476.5Q650 487 624 487Q598 487 576.0 471.0Q554 455 540.5 428.0Q527 401 526 368L521 429Q548 489 592.5 510.0Q637 531 688 531Z" fill="#141414"/>
</g>
</g>
</svg>