<svg width="494" height="175" viewBox="0 0 494 175" fill="none"
  xmlns="http://www.w3.org/2000/svg">
  <g clip-path="url(#clip0_22_2)">
    <mask id="mask0_22_2" style="mask-type:luminance" maskUnits="userSpaceOnUse" x="-42" y="-57" width="577" height="289">
      <path d="M-41.2964 -56.8492H534.704V231.151H-41.2964V-56.8492Z" fill="white"/>
    </mask>
    <g mask="url(#mask0_22_2)">
      <path d="M4.00578 149.728H7.69911L4.26711 164.062C3.75778 166.189 3.85378 167.79 4.55778 168.858C5.25911 169.928 6.56444 170.462 8.47244 170.462C10.3684 170.462 11.9231 169.928 13.1378 168.858C14.3538 167.79 15.2164 166.189 15.7258 164.062L19.1564 149.728H22.8978L19.3818 164.417C18.6178 167.609 17.2564 169.998 15.3071 171.582C13.3564 173.169 10.7991 173.961 7.63511 173.961C4.46844 173.961 2.29644 173.17 1.11378 171.59C-0.0702235 170.012 -0.27689 167.62 0.489776 164.417L4.00578 149.728Z" fill="#696A6A"/>
      <path d="M22.4016 173.333L28.2763 148.793L39.4389 163.224C39.7376 163.63 40.0389 164.066 40.3363 164.529C40.6336 164.992 40.9376 165.512 41.2496 166.093L45.1683 149.728H48.6256L42.7549 174.249L31.3576 159.561C31.0523 159.165 30.7683 158.746 30.5029 158.305C30.2349 157.864 29.9936 157.401 29.7723 156.918L25.8429 173.333H22.4016Z" fill="#696A6A"/>
      <path d="M48.3196 173.333L53.9702 149.728H57.7089L52.0596 173.333H48.3196Z" fill="#696A6A"/>
      <path d="M57.4353 173.333L63.086 149.728H75.926L75.146 152.984H66.046L64.6366 158.869H73.7366L72.9313 162.238H63.83L61.1753 173.333H57.4353Z" fill="#696A6A"/>
      <path d="M74.395 173.333L80.0457 149.728H83.7844L78.135 173.333H74.395Z" fill="#696A6A"/>
      <path d="M83.511 173.333L89.1617 149.728H102.002L101.222 152.984H92.1217L90.7043 158.901H99.8043L98.999 162.272H89.899L88.0723 169.898H97.1723L96.351 173.333H83.511Z" fill="#696A6A"/>
      <path d="M105.213 169.866H108.357C110.085 169.866 111.41 169.747 112.331 169.511C113.253 169.275 114.098 168.876 114.873 168.318C115.925 167.556 116.803 166.607 117.51 165.472C118.215 164.339 118.75 163.018 119.11 161.512C119.469 160.007 119.567 158.69 119.405 157.558C119.241 156.422 118.817 155.474 118.13 154.71C117.614 154.152 116.933 153.752 116.082 153.515C115.23 153.28 113.843 153.162 111.915 153.162H110.563H109.211L105.213 169.866ZM100.643 173.334L106.294 149.727H111.338C114.618 149.727 116.885 149.895 118.141 150.234C119.394 150.574 120.43 151.142 121.245 151.936C122.326 152.979 123.014 154.318 123.31 155.95C123.605 157.584 123.501 159.45 122.999 161.546C122.498 163.642 121.71 165.499 120.635 167.116C119.563 168.735 118.234 170.07 116.653 171.123C115.457 171.919 114.174 172.486 112.811 172.826C111.445 173.163 109.407 173.334 106.693 173.334H105.686H100.643Z" fill="#696A6A"/>
      <path d="M141.21 159.596H142.17C144.243 159.596 145.682 159.363 146.485 158.901C147.289 158.44 147.829 157.623 148.109 156.451C148.41 155.193 148.254 154.305 147.638 153.791C147.022 153.275 145.726 153.015 143.746 153.015H142.786L141.21 159.596ZM140.222 162.737L137.686 173.333H134.182L139.834 149.728H145.491C147.167 149.728 148.379 149.821 149.126 150.009C149.87 150.196 150.485 150.507 150.97 150.937C151.561 151.485 151.949 152.224 152.135 153.153C152.321 154.084 152.281 155.108 152.014 156.224C151.745 157.343 151.294 158.375 150.659 159.321C150.025 160.267 149.281 161.009 148.43 161.545C147.739 161.976 146.978 162.283 146.143 162.464C145.307 162.648 144.053 162.737 142.377 162.737H141.639H140.222Z" fill="#696A6A"/>
      <path d="M156.631 164.062H163.043L161.973 158.676C161.922 158.333 161.874 157.938 161.833 157.492C161.794 157.045 161.767 156.548 161.75 156C161.502 156.516 161.253 156.997 161.003 157.444C160.755 157.889 160.514 158.3 160.277 158.676L156.631 164.062ZM164.754 173.333L163.598 167.254H154.482L150.355 173.333H146.429L163.443 148.793L168.698 173.333H164.754Z" fill="#696A6A"/>
      <path d="M174.058 173.333L176.642 162.529L171.96 149.728H175.889L178.796 157.741C178.862 157.946 178.942 158.214 179.034 158.548C179.128 158.881 179.218 159.24 179.304 159.628C179.538 159.252 179.78 158.894 180.021 158.562C180.262 158.229 180.506 157.924 180.753 157.644L187.597 149.728H191.338L180.352 162.529L177.766 173.333H174.058Z" fill="#696A6A"/>
      <path d="M209.744 161.674C209.745 161.492 209.799 160.988 209.903 160.16C209.983 159.472 210.045 158.901 210.091 158.449C209.868 158.988 209.605 159.526 209.304 160.062C209.001 160.6 208.655 161.148 208.259 161.708L199.228 174.285L196.281 161.45C196.156 160.922 196.06 160.412 195.996 159.918C195.932 159.424 195.888 158.934 195.867 158.449C195.739 158.945 195.576 159.462 195.377 160.006C195.179 160.549 194.941 161.117 194.663 161.708L189.412 173.333H185.972L197.299 148.726L200.523 163.626C200.569 163.862 200.637 164.256 200.72 164.804C200.803 165.352 200.9 166.029 201.013 166.834C201.395 166.157 201.944 165.298 202.667 164.256C202.859 163.976 203.005 163.761 203.104 163.61L213.3 148.726L212.973 173.333H209.499L209.744 161.674Z" fill="#696A6A"/>
      <path d="M215.959 173.333L221.611 149.728H234.451L233.671 152.984H224.57L223.154 158.901H232.254L231.449 162.272H222.347L220.522 169.898H229.622L228.798 173.333H215.959Z" fill="#696A6A"/>
      <path d="M233.092 173.333L238.966 148.793L250.129 163.224C250.428 163.63 250.729 164.066 251.026 164.529C251.324 164.992 251.628 165.512 251.94 166.093L255.858 149.728H259.317L253.445 174.249L242.048 159.561C241.742 159.165 241.458 158.746 241.193 158.305C240.925 157.864 240.684 157.401 240.462 156.918L236.533 173.333H233.092Z" fill="#696A6A"/>
      <path d="M271.251 152.984L266.38 173.333H262.64L267.509 152.984H261.396L262.176 149.728H278.112L277.333 152.984H271.251Z" fill="#696A6A"/>
      <path d="M275.132 168.608L278.457 167.191C278.491 168.243 278.816 169.047 279.437 169.6C280.059 170.155 280.956 170.431 282.132 170.431C283.241 170.431 284.201 170.113 285.007 169.479C285.813 168.845 286.345 167.996 286.6 166.932C286.932 165.544 286.104 164.308 284.124 163.224C283.847 163.063 283.633 162.944 283.487 162.868C281.253 161.6 279.837 160.452 279.24 159.425C278.644 158.399 278.521 157.144 278.876 155.661C279.336 153.737 280.347 152.179 281.905 150.985C283.464 149.792 285.275 149.195 287.34 149.195C289.037 149.195 290.377 149.531 291.357 150.203C292.339 150.876 292.899 151.84 293.037 153.097L289.745 154.645C289.46 153.904 289.084 153.361 288.617 153.016C288.149 152.672 287.557 152.5 286.847 152.5C285.841 152.5 284.977 152.771 284.256 153.305C283.539 153.844 283.068 154.564 282.851 155.468C282.512 156.887 283.495 158.208 285.8 159.433C285.977 159.529 286.116 159.607 286.216 159.66C288.233 160.733 289.545 161.785 290.147 162.812C290.749 163.84 290.868 165.121 290.499 166.657C289.964 168.895 288.853 170.671 287.165 171.987C285.477 173.303 283.464 173.961 281.129 173.961C279.168 173.961 277.673 173.5 276.644 172.575C275.612 171.651 275.108 170.329 275.132 168.608Z" fill="#696A6A"/>
      <path d="M302.765 173.333L308.416 149.728H312.156L306.505 173.333H302.765Z" fill="#696A6A"/>
      <path d="M311.881 173.333L317.755 148.793L328.918 163.224C329.217 163.63 329.518 164.066 329.815 164.529C330.113 164.992 330.417 165.512 330.729 166.093L334.647 149.728H338.105L332.234 174.249L320.837 159.561C320.531 159.165 320.246 158.746 319.981 158.305C319.714 157.864 319.471 157.401 319.25 156.918L315.322 173.333H311.881Z" fill="#696A6A"/>
      <path d="M350.04 152.984L345.168 173.333H341.429L346.298 152.984H340.185L340.965 149.728H356.901L356.122 152.984H350.04Z" fill="#696A6A"/>
      <path d="M354.111 173.333L359.762 149.728H372.602L371.823 152.984H362.723L361.306 158.901H370.406L369.599 162.272H360.499L358.674 169.898H367.774L366.951 173.333H354.111Z" fill="#696A6A"/>
      <path d="M378.226 159.787H378.903C380.882 159.787 382.254 159.553 383.016 159.079C383.779 158.606 384.307 157.769 384.592 156.563C384.904 155.263 384.776 154.346 384.204 153.815C383.638 153.281 382.41 153.015 380.524 153.015H379.847L378.226 159.787ZM377.276 162.77L374.747 173.333H371.243L376.895 149.727H382.112C383.642 149.727 384.804 149.829 385.598 150.034C386.392 150.238 387.032 150.575 387.516 151.05C388.092 151.618 388.466 152.357 388.639 153.259C388.808 154.161 388.764 155.15 388.508 156.223C388.056 158.115 387.256 159.597 386.11 160.667C384.963 161.735 383.494 162.379 381.703 162.593L387.055 173.333H382.826L377.7 162.77H377.276Z" fill="#696A6A"/>
      <path d="M389.271 173.333L394.922 149.728H407.762L406.983 152.984H397.882L396.473 158.869H405.574L404.767 162.238H395.667L393.011 173.333H389.271Z" fill="#696A6A"/>
      <path d="M412.097 164.062H418.51L417.439 158.676C417.387 158.333 417.341 157.938 417.299 157.492C417.261 157.045 417.234 156.548 417.217 156C416.967 156.516 416.718 156.997 416.47 157.444C416.222 157.889 415.979 158.3 415.742 158.676L412.097 164.062ZM420.221 173.333L419.065 167.254H409.949L405.822 173.333H401.894L418.909 148.793L424.165 173.333H420.221Z" fill="#696A6A"/>
      <path d="M448.511 155.467C447.675 154.543 446.723 153.85 445.654 153.387C444.587 152.927 443.403 152.694 442.103 152.694C439.59 152.694 437.344 153.522 435.372 155.176C433.398 156.832 432.096 158.976 431.466 161.611C430.856 164.159 431.122 166.259 432.26 167.914C433.399 169.57 435.138 170.399 437.472 170.399C438.836 170.399 440.191 170.151 441.54 169.656C442.89 169.162 444.251 168.415 445.62 167.414L444.582 171.752C443.399 172.494 442.171 173.048 440.9 173.412C439.628 173.778 438.302 173.96 436.919 173.96C435.159 173.96 433.602 173.666 432.251 173.074C430.899 172.483 429.794 171.614 428.939 170.462C428.088 169.334 427.543 168.004 427.31 166.471C427.072 164.94 427.162 163.308 427.575 161.576C427.99 159.847 428.682 158.222 429.648 156.7C430.614 155.179 431.807 153.843 433.223 152.694C434.644 151.532 436.164 150.655 437.783 150.056C439.403 149.462 441.074 149.162 442.792 149.162C444.144 149.162 445.384 149.364 446.514 149.768C447.643 150.17 448.686 150.779 449.644 151.599L448.511 155.467Z" fill="#696A6A"/>
      <path d="M448.873 173.333L454.524 149.728H467.364L466.584 152.984H457.485L456.068 158.901H465.168L464.361 162.272H455.261L453.436 169.898H462.536L461.713 173.333H448.873Z" fill="#696A6A"/>
      <path d="M380.654 129.157H354.943L390.701 0.0173519H416.413L380.654 129.157Z" fill="#66686C"/>
      <path d="M367.306 4.09998C365.524 1.64265 362.774 0.402646 359.04 0.402646H217.658L210.656 25.696H236.381V25.6813H339.273L331.788 52.7106H228.893L228.902 52.6546H203.188L181.845 129.704H207.573L221.896 77.9893H337.557C341.169 77.9893 344.569 76.7573 347.766 74.2933C350.957 71.8266 353.057 68.7853 354.064 65.1533L368.385 13.428C369.43 9.67465 369.069 6.55998 367.306 4.09998Z" fill="#66686C"/>
      <path d="M166.863 121.096C165.443 126.209 160.787 129.747 155.479 129.747H22.8245C19.2098 129.747 16.5232 128.515 14.7565 126.053C12.9912 123.589 12.6125 120.541 13.6218 116.911L45.9898 0.394834H71.7245L42.8138 104.461H145.755L174.666 0.394834H200.395L166.863 121.096Z" fill="#66686C"/>
      <path d="M460.818 0.258991L493.37 64.9963L424.941 129.716L460.818 0.258991Z" fill="#27803B"/>
      <path d="M437.999 0.258991L470.527 64.9963L402.07 129.716L437.999 0.258991Z" fill="#E9661C"/>
    </g>
  </g>
  <defs>
    <clipPath id="clip0_22_2">
      <rect width="493.379" height="174.304" fill="white"/>
    </clipPath>
  </defs>
</svg>
