<svg width="190" height="190" viewBox="0 0 190 190" fill="none" xmlns="http://www.w3.org/2000/svg">
  <rect x="20" y="25" width="150" height="140" rx="14" fill="#0a0a0a" stroke="rgba(234,239,255,0.08)" stroke-width="0.8"/>
  <rect x="36" y="41" width="118" height="22" rx="6" fill="rgba(234,239,255,0.04)" stroke="rgba(234,239,255,0.06)" stroke-width="0.5"/>
  <circle cx="46" cy="52" r="3.5" fill="rgba(234,239,255,0.15)"/>
  <circle cx="56" cy="52" r="3.5" fill="rgba(234,239,255,0.08)"/>
  <circle cx="66" cy="52" r="3.5" fill="rgba(234,239,255,0.05)"/>
  <rect x="118" y="46" width="22" height="12" rx="4" fill="rgba(234,239,255,0.06)"/>
  <rect x="36" y="72" width="118" height="32" rx="6" fill="rgba(234,239,255,0.02)" stroke="rgba(234,239,255,0.05)" stroke-width="0.5"/>
  <rect x="44" y="80" width="50" height="16" rx="4" fill="rgba(234,239,255,0.06)"/>
  <rect x="106" y="82" width="36" height="4" rx="2" fill="rgba(234,239,255,0.04)"/>
  <rect x="106" y="89" width="24" height="4" rx="2" fill="rgba(234,239,255,0.03)"/>
  <rect x="36" y="111" width="118" height="38" rx="6" fill="rgba(234,239,255,0.02)" stroke="rgba(234,239,255,0.05)" stroke-width="0.5"/>
  <rect x="44" y="119" width="70" height="6" rx="3" fill="rgba(234,239,255,0.05)"/>
  <rect x="44" y="129" width="55" height="4" rx="2" fill="rgba(234,239,255,0.03)"/>
  <rect x="44" y="136" width="65" height="4" rx="2" fill="rgba(234,239,255,0.03)"/>
  <rect x="118" y="117" width="28" height="28" rx="6" fill="rgba(234,239,255,0.05)"/>
</svg>
