<svg width="190" height="190" viewBox="0 0 190 190" fill="none" xmlns="http://www.w3.org/2000/svg">
  <rect x="20" y="20" width="150" height="150" rx="14" fill="#0a0a0a" stroke="rgba(234,239,255,0.08)" stroke-width="0.8"/>
  <rect x="40" y="35" width="50" height="50" rx="8" fill="rgba(234,239,255,0.03)" stroke="rgba(234,239,255,0.08)" stroke-width="0.6"/>
  <circle cx="65" cy="60" r="5" fill="rgba(234,239,255,0.06)"/>
  <rect x="52" y="55" width="26" height="2" rx="1" fill="rgba(234,239,255,0.04)"/>
  <rect x="100" y="35" width="50" height="50" rx="8" fill="rgba(234,239,255,0.03)" stroke="rgba(234,239,255,0.08)" stroke-width="0.6"/>
  <circle cx="125" cy="60" r="5" fill="rgba(234,239,255,0.06)"/>
  <rect x="112" y="55" width="26" height="2" rx="1" fill="rgba(234,239,255,0.04)"/>
  <path d="M90 60 L100 60" stroke="rgba(234,239,255,0.15)" stroke-width="1.2" stroke-linecap="round"/>
  <path d="M90 70 L100 70" stroke="rgba(234,239,255,0.08)" stroke-width="1.2" stroke-linecap="round"/>
  <rect x="40" y="100" width="50" height="50" rx="8" fill="rgba(234,239,255,0.03)" stroke="rgba(234,239,255,0.08)" stroke-width="0.6"/>
  <circle cx="65" cy="125" r="5" fill="rgba(234,239,255,0.06)"/>
  <rect x="52" y="120" width="26" height="2" rx="1" fill="rgba(234,239,255,0.04)"/>
  <rect x="100" y="100" width="50" height="50" rx="8" fill="rgba(234,239,255,0.03)" stroke="rgba(234,239,255,0.08)" stroke-width="0.6"/>
  <circle cx="125" cy="125" r="5" fill="rgba(234,239,255,0.06)"/>
  <rect x="112" y="120" width="26" height="2" rx="1" fill="rgba(234,239,255,0.04)"/>
  <path d="M90 125 L100 125" stroke="rgba(234,239,255,0.15)" stroke-width="1.2" stroke-linecap="round"/>
  <path d="M65 85 L65 100" stroke="rgba(234,239,255,0.08)" stroke-width="0.8" stroke-linecap="round"/>
  <path d="M125 85 L125 100" stroke="rgba(234,239,255,0.08)" stroke-width="0.8" stroke-linecap="round"/>
</svg>
