<svg width="190" height="190" viewBox="0 0 190 190" fill="none" xmlns="http://www.w3.org/2000/svg">
  <rect x="20" y="25" width="150" height="140" rx="14" fill="#0a0a0a" stroke="rgba(234,239,255,0.2)" stroke-width="1"/>
  <rect x="36" y="41" width="118" height="22" rx="6" fill="rgba(234,239,255,0.1)" stroke="rgba(234,239,255,0.15)" stroke-width="0.8"/>
  <circle cx="46" cy="52" r="3.5" fill="rgba(234,239,255,0.35)"/>
  <circle cx="56" cy="52" r="3.5" fill="rgba(234,239,255,0.2)"/>
  <circle cx="66" cy="52" r="3.5" fill="rgba(234,239,255,0.12)"/>
  <rect x="118" y="46" width="22" height="12" rx="4" fill="rgba(234,239,255,0.15)"/>
  <rect x="36" y="72" width="118" height="32" rx="6" fill="rgba(234,239,255,0.06)" stroke="rgba(234,239,255,0.12)" stroke-width="0.8"/>
  <rect x="44" y="80" width="50" height="16" rx="4" fill="rgba(234,239,255,0.12)"/>
  <rect x="106" y="82" width="36" height="6" rx="2" fill="rgba(234,239,255,0.08)"/>
  <rect x="106" y="91" width="24" height="6" rx="2" fill="rgba(234,239,255,0.06)"/>
  <rect x="36" y="111" width="118" height="38" rx="6" fill="rgba(234,239,255,0.06)" stroke="rgba(234,239,255,0.12)" stroke-width="0.8"/>
  <rect x="44" y="119" width="70" height="8" rx="3" fill="rgba(234,239,255,0.1)"/>
  <rect x="44" y="131" width="55" height="5" rx="2" fill="rgba(234,239,255,0.06)"/>
  <rect x="44" y="139" width="65" height="5" rx="2" fill="rgba(234,239,255,0.06)"/>
  <rect x="118" y="117" width="28" height="28" rx="6" fill="rgba(234,239,255,0.12)"/>
</svg>
